<?xml version="1.0" standalone="no"?>
<!DOCTYPE svg PUBLIC "-//W3C//DTD SVG 20010904//EN"
 "http://www.w3.org/TR/2001/REC-SVG-20010904/DTD/svg10.dtd">
<svg version="1.0" xmlns="http://www.w3.org/2000/svg"
 width="202.000000pt" height="314.000000pt" viewBox="0 0 202.000000 314.000000"
 preserveAspectRatio="xMidYMid meet">

<g transform="translate(0.000000,314.000000) scale(0.100000,-0.100000)"
fill="#3D3D3F" stroke="none">
<path d="M805 3105 c-223 -41 -443 -180 -585 -370 -100 -134 -162 -270 -191
-422 -17 -94 -6 -338 20 -435 27 -99 97 -261 125 -290 12 -13 30 -36 41 -53
10 -16 53 -70 95 -120 92 -109 126 -158 173 -251 69 -137 78 -194 86 -519 4
-199 10 -297 19 -312 6 -12 32 -38 57 -58 24 -20 63 -67 86 -103 62 -100 84
-119 147 -133 69 -14 277 -7 313 10 15 7 49 48 75 90 27 42 75 101 108 132
l59 57 8 118 c5 66 13 218 18 339 11 233 19 280 71 386 35 74 47 90 186 256
130 155 179 232 229 361 43 113 55 185 55 347 0 182 -22 277 -102 441 -46 94
-87 152 -167 236 -152 162 -331 261 -531 294 -104 17 -301 17 -395 -1z m450
-118 c258 -74 481 -280 585 -541 44 -112 53 -175 48 -352 -5 -173 -10 -194
-78 -340 -43 -93 -88 -157 -186 -264 -98 -107 -138 -165 -190 -275 -47 -98
-75 -210 -89 -347 l-7 -68 -327 0 -328 0 -12 102 c-27 221 -102 382 -268 575
-134 155 -193 253 -244 403 -31 89 -32 103 -32 235 0 207 25 304 122 469 119
203 345 370 563 416 65 14 383 5 443 -13z m85 -2352 l0 -55 -330 0 -330 0 0
55 0 55 330 0 330 0 0 -55z m0 -209 c0 -72 6 -71 -330 -71 -336 0 -330 -1
-330 71 l0 44 330 0 330 0 0 -44z m-150 -191 c0 -2 -10 -25 -22 -50 l-22 -45
-136 0 -136 0 -22 45 c-12 25 -22 48 -22 50 0 3 81 5 180 5 99 0 180 -2 180
-5z"/>
<path d="M785 2872 c-219 -73 -386 -221 -480 -425 -88 -189 -87 -435 1 -634
66 -150 209 -295 369 -376 109 -54 189 -72 330 -71 154 1 218 15 355 81 83 40
107 57 190 142 106 109 158 188 197 306 25 73 27 94 27 235 1 149 -1 159 -30
242 -77 214 -214 367 -415 463 -102 48 -189 65 -339 64 -109 0 -136 -4 -205
-27z m421 -106 c84 -27 199 -95 265 -157 235 -224 269 -587 80 -863 -79 -114
-241 -223 -391 -262 -79 -20 -255 -14 -340 11 -165 50 -323 182 -398 332 -57
116 -76 208 -70 346 9 187 64 305 211 444 85 81 198 143 308 168 94 21 233 13
335 -19z"/>
<path d="M1108 2483 c-62 -134 -236 -537 -274 -635 -19 -48 -34 -101 -34 -118
0 -27 3 -30 29 -30 42 0 66 36 146 220 89 203 219 515 234 563 19 56 8 87 -30
87 -28 0 -33 -6 -71 -87z"/>
<path d="M800 2437 c-86 -46 -311 -199 -326 -222 -14 -21 -14 -27 -1 -52 21
-39 243 -253 263 -253 21 0 43 29 44 57 0 14 -32 56 -91 119 l-90 96 123 83
c154 104 175 126 162 163 -12 36 -31 38 -84 9z"/>
<path d="M1258 2339 c-38 -21 -21 -55 76 -156 l94 -98 -115 -75 c-64 -41 -131
-89 -150 -105 -31 -27 -35 -34 -28 -63 13 -63 62 -42 305 127 87 60 120 89
120 104 0 33 -251 280 -282 277 -2 0 -11 -5 -20 -11z"/>
</g>
</svg>
