<svg xmlns="http://www.w3.org/2000/svg" x="0px" y="0px"
width="64" height="64"
viewBox="0 0 172 172"
style=" fill:#000000;"><g fill="none" fill-rule="nonzero" stroke="none" stroke-width="1" stroke-linecap="butt" stroke-linejoin="miter" stroke-miterlimit="10" stroke-dasharray="" stroke-dashoffset="0" font-family="none" font-weight="none" font-size="none" text-anchor="none" style="mix-blend-mode: normal"><path d="M0,172v-172h172v172z" fill="none"></path><g fill="#3d3d3f"><path d="M164.83333,0h-157.66667c-3.956,0 -7.16667,3.21067 -7.16667,7.16667v28.66667c0,3.956 3.21067,7.16667 7.16667,7.16667h157.66667c3.956,0 7.16667,-3.21067 7.16667,-7.16667v-28.66667c0,-3.956 -3.21067,-7.16667 -7.16667,-7.16667zM164.83333,64.5h-157.66667c-3.956,0 -7.16667,3.21067 -7.16667,7.16667v28.66667c0,3.956 3.21067,7.16667 7.16667,7.16667h157.66667c3.956,0 7.16667,-3.21067 7.16667,-7.16667v-28.66667c0,-3.956 -3.21067,-7.16667 -7.16667,-7.16667zM164.83333,129h-157.66667c-3.956,0 -7.16667,3.21067 -7.16667,7.16667v28.66667c0,3.956 3.21067,7.16667 7.16667,7.16667h157.66667c3.956,0 7.16667,-3.21067 7.16667,-7.16667v-28.66667c0,-3.956 -3.21067,-7.16667 -7.16667,-7.16667z"></path></g></g></svg>